<svg width="37" height="30" viewBox="0 0 37 30" fill="none" xmlns="http://www.w3.org/2000/svg">
<path d="M4.43066 3.15789H24.957C25.8254 3.15789 26.5359 2.44737 26.5359 1.57895C26.5359 0.710526 25.8254 0 24.957 0H4.43066C3.56224 0 2.85172 0.710526 2.85172 1.57895C2.85172 2.44737 3.56224 3.15789 4.43066 3.15789ZM23.378 20.5263H26.5359V15.7895H26.8201C27.8149 15.7895 28.557 14.8737 28.3675 13.8947L26.7886 6C26.6465 5.27368 25.9991 4.73684 25.2412 4.73684H4.14645C3.38856 4.73684 2.74119 5.27368 2.59909 6L1.02014 13.8947C0.830665 14.8737 1.57277 15.7895 2.56751 15.7895H2.85172V23.6842C2.85172 24.5526 3.56224 25.2632 4.43066 25.2632H15.4833C16.3517 25.2632 17.0622 24.5526 17.0622 23.6842V15.7895H23.378V20.5263ZM13.9043 22.1053H6.00961V15.7895H13.9043V22.1053Z" fill="#DA00FD"/>
<path d="M34.4306 22.1053H31.2727V18.9474C31.2727 18.0789 30.5621 17.3684 29.6937 17.3684C28.8253 17.3684 28.1148 18.0789 28.1148 18.9474V22.1053H24.9569C24.0885 22.1053 23.3779 22.8158 23.3779 23.6842C23.3779 24.5526 24.0885 25.2631 24.9569 25.2631H28.1148V28.421C28.1148 29.2895 28.8253 30 29.6937 30C30.5621 30 31.2727 29.2895 31.2727 28.421V25.2631H34.4306C35.299 25.2631 36.0095 24.5526 36.0095 23.6842C36.0095 22.8158 35.299 22.1053 34.4306 22.1053Z" fill="#DA00FD"/>
</svg>
