<svg width="31" height="30" viewBox="0 0 31 30" fill="none" xmlns="http://www.w3.org/2000/svg">
<path d="M11.8617 0.00375016L12.773 0H17.2282L18.1408 0.00375016L19.2833 0.0162507L19.8246 0.025001L20.3471 0.0387516L20.8509 0.0562523L21.3359 0.0762532L21.8034 0.102504L22.2534 0.133756L22.6847 0.171257L23.101 0.212509C25.2761 0.457519 26.7674 0.982541 27.8924 2.10759C29.0175 3.23263 29.5425 4.7227 29.7875 6.89904L29.83 7.31531L29.8662 7.74782L29.8975 8.19784L29.9225 8.66411L29.9537 9.39914L29.9687 9.91166L29.985 10.7167L29.9962 11.8605L30.0012 13.0855L30 17.227L29.9962 18.1395L29.9837 19.2821L29.975 19.8233L29.9612 20.3458L29.9437 20.8496L29.9237 21.3346L29.8975 21.8022L29.8662 22.2522L29.8287 22.6834L29.7875 23.0997C29.5425 25.2748 29.0175 26.7661 27.8924 27.8912C26.7674 29.0162 25.2773 29.5412 23.101 29.7862L22.6847 29.8287L22.2522 29.865L21.8022 29.8962L21.3359 29.9212L20.6009 29.9525L20.0883 29.9675L19.2833 29.9837L18.1395 29.995L16.9145 30L12.773 29.9988L11.8605 29.995L10.7179 29.9825L10.1767 29.9737L9.65415 29.96L9.15038 29.9425L8.66536 29.9225L8.19784 29.8962L7.74782 29.865L7.31655 29.8275L6.90029 29.7862C4.7252 29.5412 3.23388 29.0162 2.10884 27.8912C0.983791 26.7661 0.458769 25.2761 0.213759 23.0997L0.171257 22.6834L0.135006 22.2509L0.103754 21.8009L0.0787533 21.3346L0.047502 20.5996L0.0325014 20.0871L0.0162507 19.2821L0.00500021 18.1383L0 16.9132L0.00125005 12.7718L0.00500021 11.8592L0.0175007 10.7167L0.0262511 10.1754L0.0400017 9.6529L0.0575024 9.14913L0.0775032 8.66411L0.103754 8.19659L0.135006 7.74657L0.172507 7.31531L0.213759 6.89904C0.458769 4.72395 0.983791 3.23263 2.10884 2.10759C3.23388 0.982541 4.72395 0.457519 6.90029 0.212509L7.31655 0.170007L7.74907 0.133756L8.19909 0.102504L8.66536 0.0775032L9.40039 0.0462519L9.91291 0.0312513L10.7179 0.0150006L11.8617 0.00375016ZM8.48785 9.12413H5.06271C5.22522 16.9245 9.12538 21.6122 15.9632 21.6122H16.3507V17.1495C18.8633 17.3995 20.7634 19.2371 21.5259 21.6122H25.076C24.101 18.062 21.5384 16.0994 19.9383 15.3494C21.5384 14.4244 23.7885 12.1743 24.326 9.12413H21.1009C20.4008 11.5992 18.3258 13.8493 16.3507 14.0618V9.12413H13.1255V17.7745C11.1255 17.2745 8.60036 14.8494 8.48785 9.12413Z" fill="#8A8A8A"/>
</svg>
